<svg width="52" height="17" viewBox="0 0 52 17" fill="none" xmlns="http://www.w3.org/2000/svg">
<path d="M3.536 14.44C3.14133 14.44 2.736 14.3173 2.32 14.072C1.91467 13.8267 1.49867 13.4267 1.072 12.872C0.741333 12.4347 0.501333 11.9333 0.352 11.368C0.213333 10.8027 0.144 10.2427 0.144 9.688C0.144 9.42133 0.16 9.16 0.192 8.904C0.234667 8.616 0.314667 8.29067 0.432 7.928C0.549333 7.55467 0.672 7.25067 0.8 7.016C0.842667 6.93067 0.901333 6.84533 0.976 6.76C1.06133 6.67467 1.11467 6.632 1.136 6.632C1.14667 6.632 1.152 6.64267 1.152 6.664C1.152 6.70667 1.09867 6.83467 0.992 7.048C0.832 7.368 0.714667 7.70933 0.64 8.072C0.565333 8.424 0.528 8.78667 0.528 9.16C0.528 9.84267 0.634667 10.5147 0.848 11.176C1.072 11.848 1.36533 12.424 1.728 12.904C2.06933 13.3627 2.4 13.6933 2.72 13.896C3.05067 14.0987 3.36 14.2 3.648 14.2C4.07467 14.2 4.45333 14.0347 4.784 13.704C5.12533 13.3733 5.408 12.968 5.632 12.488C5.792 12.1573 5.92533 11.72 6.032 11.176C6.13867 10.6427 6.21867 10.0453 6.272 9.384C6.336 8.712 6.368 8.01867 6.368 7.304C6.368 6.57867 6.336 5.864 6.272 5.16C6.208 4.456 6.10133 3.79467 5.952 3.176C5.81333 2.55733 5.63733 2.024 5.424 1.576C5.21067 1.128 4.94933 0.807999 4.64 0.615999C4.55467 0.562666 4.47467 0.535999 4.4 0.535999C4.31467 0.535999 4.22933 0.562666 4.144 0.615999C4.06933 0.669333 4 0.738666 3.936 0.823999C3.79733 1.016 3.696 1.28267 3.632 1.624C3.568 1.95467 3.536 2.312 3.536 2.696C3.536 3.144 3.57333 3.59733 3.648 4.056C3.72267 4.504 3.824 4.904 3.952 5.256C4.09067 5.59733 4.24533 5.83733 4.416 5.976C4.512 6.06133 4.60267 6.104 4.688 6.104C4.76267 6.104 4.82133 6.088 4.864 6.056C4.90667 6.01333 4.94933 5.992 4.992 5.992C5.06667 5.992 5.07733 6.024 5.024 6.088C4.97067 6.14133 4.89067 6.19467 4.784 6.248C4.67733 6.30133 4.56 6.32267 4.432 6.312C4.144 6.28 3.904 6.12 3.712 5.832C3.52 5.544 3.376 5.18133 3.28 4.744C3.184 4.296 3.136 3.83733 3.136 3.368C3.136 2.86667 3.184 2.38667 3.28 1.928C3.38667 1.46933 3.54133 1.096 3.744 0.808C3.95733 0.52 4.21333 0.375999 4.512 0.375999C4.66133 0.375999 4.80533 0.407999 4.944 0.471999C5.34933 0.642666 5.68 0.973333 5.936 1.464C6.20267 1.944 6.40533 2.52 6.544 3.192C6.69333 3.85333 6.79467 4.54667 6.848 5.272C6.912 5.99733 6.944 6.696 6.944 7.368C6.944 7.912 6.928 8.408 6.896 8.856C6.87467 9.304 6.848 9.66667 6.816 9.944C6.752 10.5307 6.624 11.0907 6.432 11.624C6.24 12.168 6 12.648 5.712 13.064C5.424 13.4907 5.09333 13.8267 4.72 14.072C4.34667 14.3173 3.952 14.44 3.536 14.44ZM7.02375 13.32C6.91708 13.32 6.83175 13.288 6.76775 13.224C6.69308 13.16 6.68242 13.0853 6.73575 13C6.88508 12.776 7.02908 12.456 7.16775 12.04C7.29575 11.6347 7.40775 11.208 7.50375 10.76C7.61042 10.312 7.69575 9.90667 7.75975 9.544C7.83442 9.17067 7.88775 8.90933 7.91975 8.76C7.72775 8.57867 7.63175 8.376 7.63175 8.152C7.63175 7.98133 7.66908 7.83733 7.74375 7.72C7.82908 7.60267 7.89308 7.54933 7.93575 7.56C7.95708 7.56 7.98375 7.57067 8.01575 7.592C8.05842 7.60267 8.07975 7.61867 8.07975 7.64C8.14375 7.13867 8.19708 6.64267 8.23975 6.152C8.28242 5.65067 8.30375 5.192 8.30375 4.776C8.30375 4.43467 8.28775 4.13067 8.25575 3.864C8.22375 3.59733 8.17575 3.384 8.11175 3.224C8.04775 3.064 8.01575 2.94133 8.01575 2.856C8.01575 2.73867 8.04775 2.68 8.11175 2.68C8.18642 2.68 8.24508 2.728 8.28775 2.824C8.40508 3.05867 8.49042 3.42667 8.54375 3.928C8.60775 4.42933 8.63975 5 8.63975 5.64C8.63975 6.07733 8.62908 6.54133 8.60775 7.032C8.58642 7.512 8.54908 7.992 8.49575 8.472C8.68775 8.30133 8.88508 8.136 9.08775 7.976C9.29042 7.80533 9.46642 7.62933 9.61575 7.448V7.432C9.61575 7.41067 9.60508 7.38933 9.58375 7.368C9.57308 7.34667 9.56775 7.31467 9.56775 7.272C9.56775 7.19733 9.62108 7.10667 9.72775 7C9.83442 6.89333 9.97308 6.744 10.1438 6.552C10.3251 6.34933 10.5118 6.168 10.7038 6.008C10.8958 5.83733 11.0718 5.75733 11.2318 5.768C11.3598 5.768 11.4238 5.81067 11.4238 5.896C11.4238 5.992 11.3331 6.136 11.1518 6.328C10.9704 6.52 10.7518 6.72267 10.4958 6.936C10.2504 7.14933 10.0211 7.34667 9.80775 7.528C9.60508 7.69867 9.47175 7.816 9.40775 7.88L8.79975 8.552L8.47975 8.888C8.61842 9.24 8.77842 9.58667 8.95975 9.928C9.14108 10.2693 9.34375 10.552 9.56775 10.776C9.80242 11 10.0424 11.112 10.2878 11.112C10.5438 11.112 10.8051 10.9573 11.0718 10.648C11.2531 10.424 11.4078 10.1733 11.5358 9.896C11.6638 9.61867 11.7704 9.41067 11.8558 9.272C11.9091 9.16533 11.9624 9.096 12.0158 9.064C12.0691 9.02133 12.1118 9 12.1438 9C12.2184 9 12.2451 9.05333 12.2238 9.16C12.1811 9.29867 12.1064 9.47467 11.9998 9.688C11.8931 9.90133 11.7864 10.104 11.6798 10.296C11.5838 10.4773 11.5091 10.6053 11.4557 10.68C11.2531 10.9787 11.0504 11.1973 10.8478 11.336C10.6451 11.4747 10.4478 11.544 10.2558 11.544C10.0104 11.544 9.77042 11.4533 9.53575 11.272C9.30108 11.0907 9.08242 10.856 8.87975 10.568C8.68775 10.28 8.51175 9.976 8.35175 9.656C8.23442 10.4667 8.09042 11.192 7.91975 11.832C7.74908 12.4827 7.56242 12.9307 7.35975 13.176C7.26375 13.272 7.15175 13.32 7.02375 13.32ZM16.0846 11.752C15.8286 11.752 15.6366 11.64 15.5086 11.416C15.3806 11.2027 15.3166 10.9307 15.3166 10.6C15.3166 10.3653 15.3646 10.072 15.4606 9.72C15.5566 9.368 15.69 9 15.8606 8.616C16.0313 8.232 16.2233 7.87467 16.4366 7.544C16.65 7.20267 16.8686 6.93067 17.0926 6.728C17.3273 6.51467 17.5566 6.408 17.7806 6.408C17.962 6.408 18.09 6.47733 18.1646 6.616C18.25 6.744 18.2926 6.88267 18.2926 7.032C18.2926 7.16 18.266 7.27733 18.2126 7.384C18.17 7.48 18.106 7.528 18.0206 7.528C17.9353 7.528 17.8713 7.49067 17.8286 7.416C17.7966 7.33067 17.7646 7.24533 17.7326 7.16C17.7113 7.07467 17.6526 7.032 17.5566 7.032C17.3646 7.032 17.1726 7.15467 16.9806 7.4C16.7886 7.64533 16.6126 7.95467 16.4526 8.328C16.2926 8.70133 16.1646 9.09067 16.0686 9.496C15.9726 9.89067 15.9246 10.2427 15.9246 10.552C15.9246 10.776 15.9513 10.952 16.0046 11.08C16.0686 11.2187 16.17 11.288 16.3086 11.288C16.49 11.288 16.6713 11.176 16.8526 10.952C17.0446 10.7173 17.2313 10.4187 17.4126 10.056C17.594 9.68267 17.7593 9.29333 17.9086 8.888C18.0686 8.48267 18.202 8.104 18.3086 7.752C18.426 7.38933 18.5166 7.10133 18.5806 6.888C18.666 6.14133 18.7673 5.38933 18.8846 4.632C19.0126 3.87467 19.1993 3.13867 19.4446 2.424C19.4766 2.30667 19.5246 2.20533 19.5886 2.12C19.6633 2.03467 19.738 1.992 19.8126 1.992C19.898 1.992 19.9673 2.05067 20.0206 2.168C20.0846 2.28533 20.1166 2.41867 20.1166 2.568C20.1166 2.68533 20.0953 2.808 20.0526 2.936C20.01 3.064 19.9566 3.23467 19.8926 3.448C19.818 3.704 19.722 4.04533 19.6046 4.472C19.498 4.888 19.386 5.36267 19.2686 5.896C19.1513 6.41867 19.05 6.97867 18.9646 7.576C18.89 8.16267 18.8526 8.74933 18.8526 9.336C18.8526 9.784 18.8846 10.0987 18.9486 10.28C19.0126 10.4613 19.098 10.552 19.2046 10.552C19.322 10.552 19.45 10.4773 19.5886 10.328C19.738 10.1787 19.882 9.99733 20.0206 9.784C20.17 9.57067 20.3033 9.35733 20.4206 9.144C20.538 8.92 20.6286 8.744 20.6926 8.616C20.81 8.38133 20.9006 8.264 20.9646 8.264C21.0073 8.264 21.0286 8.312 21.0286 8.408C21.0286 8.48267 21.0126 8.56267 20.9806 8.648C20.9166 8.78667 20.874 8.89333 20.8526 8.968C20.8313 9.032 20.8046 9.096 20.7726 9.16C20.7513 9.224 20.698 9.32533 20.6126 9.464C20.538 9.592 20.4206 9.768 20.2606 9.992C20.1006 10.2053 19.9193 10.4027 19.7166 10.584C19.514 10.7547 19.3113 10.84 19.1086 10.84C18.906 10.84 18.7513 10.7547 18.6446 10.584C18.5486 10.4133 18.4846 10.1947 18.4526 9.928C18.4313 9.65067 18.4206 9.368 18.4206 9.08C18.4206 8.728 18.4366 8.35467 18.4686 7.96C18.394 8.216 18.2926 8.52 18.1646 8.872C18.0366 9.21333 17.8926 9.56 17.7326 9.912C17.5726 10.264 17.402 10.584 17.2206 10.872C17.0713 11.1067 16.906 11.3093 16.7246 11.48C16.5433 11.6613 16.33 11.752 16.0846 11.752ZM21.7775 11.208C21.3935 11.208 21.0575 10.984 20.7695 10.536C20.4922 10.0773 20.3535 9.35733 20.3535 8.376C20.3535 7.736 20.4335 7.224 20.5935 6.84C20.7535 6.44533 20.9508 6.15733 21.1855 5.976C21.4202 5.79467 21.6442 5.704 21.8575 5.704C22.0708 5.704 22.2522 5.77867 22.4015 5.928C22.5508 6.06667 22.6255 6.26933 22.6255 6.536C22.6255 6.792 22.5508 7.064 22.4015 7.352C22.2522 7.62933 22.0708 7.88533 21.8575 8.12C21.6548 8.344 21.4522 8.49333 21.2495 8.568C21.2068 8.58933 21.1535 8.6 21.0895 8.6C21.0468 8.6 21.0255 8.584 21.0255 8.552C21.0255 8.46667 21.1108 8.37067 21.2815 8.264C21.4948 8.11467 21.6975 7.89067 21.8895 7.592C22.0815 7.28267 22.1775 7.01067 22.1775 6.776C22.1775 6.63733 22.1455 6.53067 22.0815 6.456C22.0175 6.37067 21.9428 6.328 21.8575 6.328C21.6975 6.328 21.5215 6.456 21.3295 6.712C21.1482 6.95733 21.0148 7.384 20.9295 7.992C20.9082 8.16267 20.8868 8.328 20.8655 8.488C20.8548 8.63733 20.8495 8.78667 20.8495 8.936C20.8495 9.53333 20.9402 10.0027 21.1215 10.344C21.3028 10.6747 21.5428 10.84 21.8415 10.84C22.0975 10.84 22.3855 10.6907 22.7055 10.392C23.0255 10.0827 23.3402 9.60267 23.6495 8.952C23.7242 8.78133 23.8095 8.696 23.9055 8.696C23.9695 8.696 24.0015 8.73867 24.0015 8.824C24.0015 8.89867 23.9802 8.97867 23.9375 9.064C23.6602 9.74667 23.3242 10.2747 22.9295 10.648C22.5348 11.0213 22.1508 11.208 21.7775 11.208ZM24.9174 12.072C24.8534 12.072 24.7894 12.0347 24.7254 11.96C24.672 11.8853 24.6347 11.768 24.6134 11.608C24.6027 11.5653 24.5974 11.5013 24.5974 11.416C24.5974 11.3413 24.5974 11.2507 24.5974 11.144C24.5974 10.9307 24.5974 10.7173 24.5974 10.504C24.608 10.28 24.6134 10.1307 24.6134 10.056C24.6134 9.608 24.592 9.15467 24.5494 8.696C24.5067 8.23733 24.4214 7.85333 24.2934 7.544C24.1654 7.23467 23.9627 7.08 23.6854 7.08C23.5147 7.08 23.3547 7.144 23.2054 7.272C23.0667 7.38933 22.9494 7.512 22.8534 7.64C22.7467 7.768 22.672 7.832 22.6294 7.832C22.5867 7.832 22.5654 7.81067 22.5654 7.768C22.5654 7.71467 22.6134 7.62933 22.7094 7.512C22.8054 7.384 22.8747 7.29867 22.9174 7.256C23.0774 7.096 23.2534 6.952 23.4454 6.824C23.648 6.696 23.8347 6.632 24.0054 6.632C24.272 6.632 24.48 6.78133 24.6294 7.08C24.7787 7.368 24.8854 7.736 24.9494 8.184C25.0134 8.62133 25.0454 9.064 25.0454 9.512C25.0454 9.736 25.04 9.95467 25.0294 10.168C25.0187 10.3707 25.0027 10.5573 24.9814 10.728C25.0774 10.4613 25.2 10.1467 25.3494 9.784C25.4987 9.41067 25.6694 9.032 25.8614 8.648C26.064 8.25333 26.2774 7.88533 26.5014 7.544C26.7254 7.20267 26.9654 6.92 27.2214 6.696C27.3707 6.568 27.4827 6.504 27.5574 6.504C27.6214 6.504 27.6534 6.536 27.6534 6.6C27.6534 6.70667 27.5627 6.84 27.3814 7C27.008 7.33067 26.6934 7.70933 26.4374 8.136C26.1814 8.56267 25.9734 9 25.8134 9.448C25.664 9.896 25.552 10.3173 25.4774 10.712C25.4027 11.1067 25.3547 11.432 25.3334 11.688C25.3227 11.7627 25.2747 11.8427 25.1894 11.928C25.104 12.024 25.0134 12.072 24.9174 12.072ZM28.5588 11.208C28.1748 11.208 27.8388 10.984 27.5508 10.536C27.2734 10.0773 27.1348 9.35733 27.1348 8.376C27.1348 7.736 27.2148 7.224 27.3748 6.84C27.5348 6.44533 27.7321 6.15733 27.9668 5.976C28.2014 5.79467 28.4254 5.704 28.6388 5.704C28.8521 5.704 29.0334 5.77867 29.1828 5.928C29.3321 6.06667 29.4068 6.26933 29.4068 6.536C29.4068 6.792 29.3321 7.064 29.1828 7.352C29.0334 7.62933 28.8521 7.88533 28.6388 8.12C28.4361 8.344 28.2334 8.49333 28.0308 8.568C27.9881 8.58933 27.9348 8.6 27.8708 8.6C27.8281 8.6 27.8068 8.584 27.8068 8.552C27.8068 8.46667 27.8921 8.37067 28.0628 8.264C28.2761 8.11467 28.4788 7.89067 28.6708 7.592C28.8628 7.28267 28.9588 7.01067 28.9588 6.776C28.9588 6.63733 28.9268 6.53067 28.8628 6.456C28.7988 6.37067 28.7241 6.328 28.6388 6.328C28.4788 6.328 28.3028 6.456 28.1108 6.712C27.9294 6.95733 27.7961 7.384 27.7108 7.992C27.6894 8.16267 27.6681 8.328 27.6468 8.488C27.6361 8.63733 27.6308 8.78667 27.6308 8.936C27.6308 9.53333 27.7214 10.0027 27.9028 10.344C28.0841 10.6747 28.3241 10.84 28.6228 10.84C28.8788 10.84 29.1668 10.6907 29.4868 10.392C29.8068 10.0827 30.1214 9.60267 30.4308 8.952C30.5054 8.78133 30.5908 8.696 30.6868 8.696C30.7508 8.696 30.7828 8.73867 30.7828 8.824C30.7828 8.89867 30.7614 8.97867 30.7188 9.064C30.4414 9.74667 30.1054 10.2747 29.7108 10.648C29.3161 11.0213 28.9321 11.208 28.5588 11.208ZM32.7546 13.544C32.616 13.544 32.4826 13.4907 32.3546 13.384C32.2373 13.2773 32.136 13.1707 32.0506 13.064C31.7093 12.6693 31.4213 12.1467 31.1866 11.496C30.9626 10.8453 30.792 10.1307 30.6746 9.352C30.5573 8.56267 30.4986 7.76267 30.4986 6.952C30.4986 6.19467 30.5466 5.45867 30.6426 4.744C30.7493 4.02933 30.9093 3.37867 31.1226 2.792C31.336 2.20533 31.6026 1.736 31.9226 1.384C32.3386 0.914666 32.7386 0.679999 33.1226 0.679999C33.3573 0.679999 33.544 0.786666 33.6826 1C33.832 1.20267 33.9066 1.528 33.9066 1.976C33.9066 2.40267 33.8213 2.94667 33.6506 3.608C33.4906 4.25867 33.2133 5.03733 32.8186 5.944C32.68 6.24267 32.5306 6.54133 32.3706 6.84C32.2213 7.13867 32.0613 7.45333 31.8906 7.784C31.8266 7.912 31.7733 7.976 31.7306 7.976C31.7093 7.976 31.6986 7.95467 31.6986 7.912C31.6986 7.82667 31.736 7.71467 31.8106 7.576C32.7813 5.752 33.2666 3.93867 33.2666 2.136C33.2666 1.42133 33.1173 1.064 32.8186 1.064C32.6053 1.064 32.3546 1.272 32.0666 1.688C31.672 2.27467 31.4 2.97333 31.2506 3.784C31.1013 4.584 31.0266 5.39467 31.0266 6.216C31.0266 6.83467 31.0533 7.43733 31.1066 8.024C31.16 8.6 31.224 9.12267 31.2986 9.592C31.3306 9.79467 31.3786 10.0667 31.4426 10.408C31.5066 10.7493 31.592 11.1067 31.6986 11.48C31.8053 11.864 31.9226 12.2107 32.0506 12.52C32.1893 12.84 32.3386 13.0693 32.4986 13.208C32.5413 13.24 32.584 13.272 32.6266 13.304C32.68 13.3467 32.7386 13.3733 32.8026 13.384C32.8986 13.384 32.9466 13.4107 32.9466 13.464C32.9466 13.5173 32.8826 13.544 32.7546 13.544ZM34.5781 11.56C34.2261 11.56 33.9381 11.4533 33.7141 11.24C33.5008 11.0267 33.3408 10.7547 33.2341 10.424C33.1275 10.0827 33.0741 9.72533 33.0741 9.352C33.0741 9.128 33.0955 8.91467 33.1381 8.712C33.1808 8.50933 33.2235 8.344 33.2661 8.216C33.2555 8.14133 33.2448 8.06667 33.2341 7.992C33.2341 7.90667 33.2341 7.82133 33.2341 7.736C33.2341 7.42667 33.2661 7.09067 33.3301 6.728C33.3941 6.36533 33.4955 6.01867 33.6341 5.688C33.7835 5.35733 33.9648 5.09067 34.1781 4.888C34.4021 4.67467 34.6741 4.568 34.9941 4.568C35.2715 4.568 35.5435 4.68533 35.8101 4.92C36.0768 5.144 36.3115 5.47467 36.5141 5.912C36.6315 6.15733 36.7115 6.424 36.7541 6.712C36.8075 6.98933 36.8341 7.272 36.8341 7.56C36.8341 7.95467 36.7915 8.34933 36.7061 8.744C36.6315 9.128 36.5195 9.49067 36.3701 9.832C36.2635 10.0773 36.1195 10.3387 35.9381 10.616C35.7675 10.8827 35.5701 11.1067 35.3461 11.288C35.1221 11.4693 34.8661 11.56 34.5781 11.56ZM34.6581 11.208C35.0208 11.208 35.3568 10.9573 35.6661 10.456C35.8901 10.104 36.0501 9.704 36.1461 9.256C36.2421 8.79733 36.2901 8.33867 36.2901 7.88C36.2901 7.53867 36.2688 7.208 36.2261 6.888C36.1835 6.568 36.1195 6.25867 36.0341 5.96C35.9595 5.69333 35.8315 5.45867 35.6501 5.256C35.4795 5.04267 35.2341 4.952 34.9141 4.984C34.6581 5.00533 34.4341 5.13333 34.2421 5.368C34.0501 5.60267 33.9008 5.86933 33.7941 6.168C33.6981 6.456 33.6501 6.70667 33.6501 6.92C33.6501 7.03733 33.6661 7.128 33.6981 7.192C33.7301 7.10667 33.8101 6.968 33.9381 6.776C34.0661 6.57333 34.2101 6.392 34.3701 6.232C34.5301 6.06133 34.6795 5.976 34.8181 5.976C34.9355 5.976 34.9941 6.024 34.9941 6.12C34.8555 6.13067 34.7168 6.216 34.5781 6.376C34.4501 6.52533 34.3275 6.70667 34.2101 6.92C34.1035 7.13333 34.0128 7.34667 33.9381 7.56C33.8741 7.76267 33.8261 7.92267 33.7941 8.04C33.7835 8.08267 33.7675 8.136 33.7461 8.2C33.7248 8.264 33.7141 8.328 33.7141 8.392C33.7141 8.46667 33.7568 8.58933 33.8421 8.76C33.9275 8.92 34.0661 9.06933 34.2581 9.208C34.4501 9.34667 34.7115 9.416 35.0421 9.416C35.1381 9.416 35.2395 9.40533 35.3461 9.384C35.4528 9.36267 35.5541 9.34133 35.6501 9.32L35.7621 9.288C35.7835 9.288 35.7941 9.29867 35.7941 9.32C35.7941 9.352 35.7568 9.39467 35.6821 9.448C35.6181 9.49067 35.5595 9.52267 35.5061 9.544C35.3568 9.61867 35.1915 9.656 35.0101 9.656C34.7435 9.656 34.4875 9.576 34.2421 9.416C34.0075 9.24533 33.7995 9.05333 33.6181 8.84C33.6075 8.92533 33.6021 9.01067 33.6021 9.096C33.6021 9.17067 33.6021 9.24533 33.6021 9.32C33.6021 9.93867 33.7088 10.408 33.9221 10.728C34.1355 11.048 34.3808 11.208 34.6581 11.208ZM37.3855 16.216C37.2255 16.216 37.0975 16.1093 37.0015 15.896C36.9055 15.6933 36.8362 15.448 36.7935 15.16C36.7402 14.872 36.7135 14.6053 36.7135 14.36C36.7135 14.2427 36.7188 14.072 36.7295 13.848C36.7402 13.624 36.7562 13.384 36.7775 13.128C36.7988 12.872 36.8202 12.632 36.8415 12.408C36.8628 12.184 36.8788 12.0133 36.8895 11.896C36.9855 11.1707 37.1295 10.472 37.3215 9.8C37.5135 9.11733 37.7215 8.45067 37.9455 7.8C37.9562 7.77867 37.9668 7.74667 37.9775 7.704C37.9988 7.66133 38.0148 7.64 38.0255 7.64V7.592C37.9188 7.63467 37.7802 7.736 37.6095 7.896C37.4495 8.056 37.3322 8.17867 37.2575 8.264C37.1828 8.33867 37.1135 8.41867 37.0495 8.504C36.9855 8.57867 36.9108 8.616 36.8255 8.616C36.7402 8.616 36.6975 8.568 36.6975 8.472C36.6975 8.35467 36.7615 8.23733 36.8895 8.12C37.0068 7.992 37.1402 7.87467 37.2895 7.768C37.4388 7.65067 37.5988 7.544 37.7695 7.448C37.9508 7.352 38.0788 7.28267 38.1535 7.24C38.1855 7.21867 38.2068 7.192 38.2175 7.16C38.2388 7.128 38.2548 7.096 38.2655 7.064C38.3402 6.94667 38.4148 6.83467 38.4895 6.728C38.5748 6.62133 38.6868 6.54667 38.8255 6.504C38.9215 6.51467 39.0282 6.536 39.1455 6.568C39.2628 6.6 39.3322 6.67467 39.3535 6.792C39.3535 6.83467 39.3642 6.856 39.3855 6.856V6.872C39.4388 6.872 39.5028 6.86667 39.5775 6.856C39.6628 6.83467 39.7588 6.824 39.8655 6.824C40.2815 6.824 40.6175 6.93067 40.8735 7.144C41.1295 7.35733 41.2575 7.64 41.2575 7.992C41.2575 8.32267 41.1615 8.68 40.9695 9.064C40.7775 9.43733 40.5695 9.74133 40.3455 9.976C39.9935 10.328 39.6202 10.6373 39.2255 10.904C38.8415 11.16 38.5108 11.288 38.2335 11.288C38.0628 11.288 37.9455 11.24 37.8815 11.144C37.8282 11.0587 37.8015 10.952 37.8015 10.824C37.8015 10.6427 37.8815 10.4613 38.0415 10.28C38.2015 10.0987 38.3615 9.944 38.5215 9.816C38.7028 9.66667 38.8895 9.528 39.0815 9.4C39.2842 9.272 39.4548 9.16533 39.5935 9.08C39.6682 9.02667 39.7375 8.97867 39.8015 8.936C39.8762 8.89333 39.9402 8.872 39.9935 8.872C40.0255 8.872 40.0415 8.888 40.0415 8.92C40.0415 8.94133 39.9775 8.99467 39.8495 9.08C39.7322 9.16533 39.6308 9.24 39.5455 9.304C39.4815 9.35733 39.3695 9.45333 39.2095 9.592C39.0495 9.72 38.8788 9.86933 38.6975 10.04C38.5268 10.2 38.3775 10.3653 38.2495 10.536C38.1215 10.7067 38.0575 10.856 38.0575 10.984C38.2282 10.984 38.4148 10.9147 38.6175 10.776C38.8308 10.6267 39.0388 10.456 39.2415 10.264C39.4548 10.072 39.6362 9.912 39.7855 9.784C39.9242 9.656 40.0895 9.48 40.2815 9.256C40.4735 9.032 40.6442 8.792 40.7935 8.536C40.9428 8.28 41.0175 8.04533 41.0175 7.832C41.0175 7.55467 40.9108 7.352 40.6975 7.224C40.4948 7.08533 40.2495 7.016 39.9615 7.016C39.8655 7.016 39.7428 7.02667 39.5935 7.048C39.4442 7.06933 39.3535 7.09067 39.3215 7.112C39.0868 7.47467 38.8628 7.84267 38.6495 8.216C38.4362 8.58933 38.2388 8.97333 38.0575 9.368C37.7588 10.008 37.5188 10.6587 37.3375 11.32C37.1668 11.9813 37.0548 12.696 37.0015 13.464C36.9908 13.6453 36.9748 13.8373 36.9535 14.04C36.9428 14.2427 36.9428 14.4453 36.9535 14.648C36.9642 14.7547 36.9855 14.9253 37.0175 15.16C37.0495 15.3947 37.1028 15.608 37.1775 15.8C37.2522 15.992 37.3535 16.088 37.4815 16.088C37.4922 16.088 37.5135 16.088 37.5455 16.088C37.5775 16.088 37.5935 16.0933 37.5935 16.104V16.152C37.5188 16.1947 37.4495 16.216 37.3855 16.216ZM42.8088 11.208C42.4248 11.208 42.0888 10.984 41.8008 10.536C41.5234 10.0773 41.3848 9.35733 41.3848 8.376C41.3848 7.736 41.4648 7.224 41.6248 6.84C41.7848 6.44533 41.9821 6.15733 42.2168 5.976C42.4514 5.79467 42.6754 5.704 42.8888 5.704C43.1021 5.704 43.2834 5.77867 43.4328 5.928C43.5821 6.06667 43.6568 6.26933 43.6568 6.536C43.6568 6.792 43.5821 7.064 43.4328 7.352C43.2834 7.62933 43.1021 7.88533 42.8888 8.12C42.6861 8.344 42.4834 8.49333 42.2808 8.568C42.2381 8.58933 42.1848 8.6 42.1208 8.6C42.0781 8.6 42.0568 8.584 42.0568 8.552C42.0568 8.46667 42.1421 8.37067 42.3128 8.264C42.5261 8.11467 42.7288 7.89067 42.9208 7.592C43.1128 7.28267 43.2088 7.01067 43.2088 6.776C43.2088 6.63733 43.1768 6.53067 43.1128 6.456C43.0488 6.37067 42.9741 6.328 42.8888 6.328C42.7288 6.328 42.5528 6.456 42.3608 6.712C42.1794 6.95733 42.0461 7.384 41.9608 7.992C41.9394 8.16267 41.9181 8.328 41.8968 8.488C41.8861 8.63733 41.8808 8.78667 41.8808 8.936C41.8808 9.53333 41.9714 10.0027 42.1528 10.344C42.3341 10.6747 42.5741 10.84 42.8728 10.84C43.1288 10.84 43.4168 10.6907 43.7368 10.392C44.0568 10.0827 44.3714 9.60267 44.6808 8.952C44.7554 8.78133 44.8408 8.696 44.9368 8.696C45.0008 8.696 45.0328 8.73867 45.0328 8.824C45.0328 8.89867 45.0114 8.97867 44.9688 9.064C44.6914 9.74667 44.3554 10.2747 43.9608 10.648C43.5661 11.0213 43.1821 11.208 42.8088 11.208ZM46.6846 11.8C46.3433 11.8 46.082 11.64 45.9006 11.32C45.7193 11.0107 45.6286 10.6693 45.6286 10.296C45.6286 9.944 45.6873 9.576 45.8046 9.192C45.922 8.808 46.066 8.42933 46.2366 8.056C46.418 7.68267 46.6046 7.34133 46.7966 7.032C46.6046 7.10667 46.4233 7.144 46.2526 7.144C46.1673 7.144 46.0926 7.13333 46.0286 7.112C45.9646 7.09067 45.9113 7.07467 45.8686 7.064C45.8153 7.192 45.7193 7.40533 45.5806 7.704C45.4526 8.00267 45.314 8.31733 45.1646 8.648C45.026 8.968 44.9033 9.24 44.7966 9.464C44.626 9.82667 44.4766 10.008 44.3486 10.008C44.2846 10.008 44.2526 9.96533 44.2526 9.88C44.2526 9.816 44.2793 9.73067 44.3326 9.624C44.578 9.16533 44.8073 8.712 45.0206 8.264C45.2446 7.816 45.4473 7.384 45.6286 6.968C45.6073 6.91467 45.586 6.84533 45.5646 6.76C45.5433 6.664 45.5326 6.56267 45.5326 6.456C45.5326 6.33867 45.5433 6.216 45.5646 6.088C45.5966 5.94933 45.6393 5.816 45.6926 5.688C45.7246 5.61333 45.7833 5.50667 45.8686 5.368C45.954 5.21867 46.05 5.08533 46.1566 4.968C46.2633 4.84 46.3646 4.776 46.4606 4.776C46.642 4.776 46.7326 4.872 46.7326 5.064C46.7326 5.24533 46.674 5.45333 46.5566 5.688C46.45 5.92267 46.338 6.14133 46.2206 6.344C46.1033 6.536 46.0446 6.68 46.0446 6.776C46.0446 6.86133 46.0873 6.904 46.1726 6.904C46.29 6.904 46.434 6.84533 46.6046 6.728C46.786 6.6 46.93 6.48267 47.0366 6.376C47.09 6.32267 47.1753 6.24267 47.2926 6.136C47.41 6.01867 47.522 5.96 47.6286 5.96C47.7353 5.96 47.8046 5.992 47.8366 6.056C47.8793 6.12 47.9006 6.19467 47.9006 6.28C47.9006 6.376 47.858 6.49867 47.7726 6.648C47.6873 6.78667 47.586 6.92533 47.4686 7.064C47.362 7.20267 47.2713 7.32 47.1966 7.416C47.0473 7.64 46.8766 7.92267 46.6846 8.264C46.4926 8.60533 46.3273 8.97333 46.1886 9.368C46.05 9.752 45.9806 10.12 45.9806 10.472C45.9806 10.7067 46.0393 10.952 46.1566 11.208C46.274 11.464 46.434 11.592 46.6366 11.592C46.818 11.592 47.01 11.496 47.2126 11.304C47.426 11.112 47.6233 10.8827 47.8046 10.616C47.9966 10.3493 48.162 10.0933 48.3006 9.848C48.45 9.60267 48.5513 9.432 48.6046 9.336C48.626 9.28267 48.6633 9.21867 48.7166 9.144C48.77 9.05867 48.834 9.016 48.9086 9.016C48.9726 9.016 49.0046 9.048 49.0046 9.112C49.0046 9.16533 48.9886 9.22933 48.9566 9.304C48.9353 9.368 48.914 9.42667 48.8926 9.48C48.7966 9.704 48.6793 9.93867 48.5406 10.184C48.402 10.4293 48.306 10.5947 48.2526 10.68C48.1033 10.9253 47.8793 11.1707 47.5806 11.416C47.2926 11.672 46.994 11.8 46.6846 11.8ZM50.074 11.688C49.9353 11.688 49.834 11.64 49.77 11.544C49.7167 11.4587 49.69 11.3733 49.69 11.288C49.69 11.1173 49.7647 10.9413 49.914 10.76C49.9673 10.696 50.042 10.6107 50.138 10.504C50.234 10.3867 50.3033 10.296 50.346 10.232C50.2073 10.04 50.0207 9.864 49.786 9.704C49.5513 9.544 49.322 9.34133 49.098 9.096C48.8953 8.872 48.7247 8.6 48.586 8.28C48.4473 7.94933 48.378 7.63467 48.378 7.336C48.378 6.984 48.458 6.648 48.618 6.328C48.778 6.008 48.9753 5.73067 49.21 5.496C49.466 5.24 49.7487 5.03733 50.058 4.888C50.3673 4.728 50.6873 4.648 51.018 4.648C51.242 4.648 51.4607 4.70133 51.674 4.808C51.8873 4.91467 51.994 5.09067 51.994 5.336C51.994 5.624 51.93 5.768 51.802 5.768C51.7487 5.768 51.7113 5.71467 51.69 5.608C51.6793 5.55467 51.674 5.50133 51.674 5.448C51.674 5.384 51.674 5.34133 51.674 5.32C51.674 5.21333 51.626 5.12267 51.53 5.048C51.434 4.96267 51.3273 4.92 51.21 4.92C50.9647 4.92 50.6927 5.016 50.394 5.208C50.0953 5.4 49.8447 5.624 49.642 5.88C49.4393 6.14667 49.274 6.45067 49.146 6.792C49.018 7.12267 48.954 7.44267 48.954 7.752C48.954 8.136 49.0393 8.46667 49.21 8.744C49.3807 9.02133 49.5833 9.26667 49.818 9.48C50.0633 9.69333 50.282 9.90133 50.474 10.104C50.57 9.98667 50.6713 9.87467 50.778 9.768C50.8953 9.66133 51.002 9.576 51.098 9.512C51.1833 9.45867 51.242 9.432 51.274 9.432C51.306 9.432 51.322 9.448 51.322 9.48C51.322 9.53333 51.274 9.59733 51.178 9.672C51.1567 9.69333 51.0927 9.75733 50.986 9.864C50.89 9.96 50.7727 10.0827 50.634 10.232C50.7193 10.328 50.7887 10.4293 50.842 10.536C50.8953 10.6427 50.922 10.76 50.922 10.888C50.922 11.0587 50.826 11.2347 50.634 11.416C50.442 11.5973 50.2553 11.688 50.074 11.688ZM50.25 11.256C50.3247 11.256 50.394 11.1867 50.458 11.048C50.5327 10.92 50.57 10.792 50.57 10.664C50.57 10.6 50.5593 10.5413 50.538 10.488C50.5167 10.4347 50.5007 10.4027 50.49 10.392C50.4047 10.4987 50.3247 10.616 50.25 10.744C50.186 10.8613 50.154 10.968 50.154 11.064C50.154 11.192 50.186 11.256 50.25 11.256Z" fill="black"/>
</svg>
