<svg width="21" height="16" viewBox="0 0 21 16" fill="none" xmlns="http://www.w3.org/2000/svg">
<path d="M6.90177 14.1709C5.15886 15.9243 2.20703 15.9173 1.38266 13.5805C1.22126 13.123 1.09222 12.6526 0.997305 12.1726C0.609782 10.2127 0.808673 8.18125 1.56883 6.33508C2.32898 4.48896 3.61626 2.91103 5.26787 1.80086C6.91951 0.690695 8.86129 0.0981444 10.8477 0.0981445C12.834 0.0981446 14.7758 0.690695 16.4274 1.80086C18.079 2.91103 19.3663 4.48896 20.1265 6.33513C20.8866 8.18125 21.0855 10.2127 20.698 12.1726C20.6031 12.6526 20.474 13.123 20.3126 13.5805C19.4882 15.9173 16.5364 15.9243 14.7935 14.1709L12.1031 11.4644C11.846 11.2058 11.8726 10.7794 11.9435 10.4208C11.9866 10.2027 11.9644 9.97675 11.8799 9.77136C11.7953 9.56598 11.6521 9.39042 11.4684 9.26694C11.2846 9.14347 11.0686 9.07753 10.8477 9.07753C10.6267 9.07753 10.4107 9.14347 10.2269 9.26694C10.0431 9.39042 9.89997 9.56598 9.8154 9.77136C9.73083 9.97675 9.70871 10.2027 9.75184 10.4208C9.82275 10.7794 9.84925 11.2058 9.59221 11.4644L6.90177 14.1709Z" fill="url(#paint0_linear_160_359)"/>
<defs>
<linearGradient id="paint0_linear_160_359" x1="19.9768" y1="5.14982" x2="2.14987" y2="5.14982" gradientUnits="userSpaceOnUse">
<stop stop-color="#64C2DB"/>
<stop offset="0.510417" stop-color="#7476ED"/>
<stop offset="1" stop-color="#E56F8C"/>
</linearGradient>
</defs>
</svg>
